<mxfile host="app.diagrams.net" modified="2023-08-03T11:11:28.336Z" agent="Mozilla/5.0 (Windows NT 10.0; Win64; x64; rv:109.0) Gecko/20100101 Firefox/116.0" version="21.3.5" etag="NRO3vCLknqwVZ9PVWgKX" type="github">
  <diagram name="Страница 1" id="1JV_KwH0qyhP7zZxKh6l">
    <mxGraphModel>
      <root>
        <mxCell id="0" />
        <mxCell id="1" parent="0" />
      </root>
    </mxGraphModel>
  </diagram>
</mxfile>
